<?xml version="1.0" encoding="utf-8"?>
<!-- Generator: Adobe Illustrator 16.0.0, SVG Export Plug-In . SVG Version: 6.00 Build 0)  -->
<!DOCTYPE svg PUBLIC "-//W3C//DTD SVG 1.1//EN" "http://www.w3.org/Graphics/SVG/1.1/DTD/svg11.dtd">
<svg version="1.1" id="Layer_1" xmlns="http://www.w3.org/2000/svg" xmlns:xlink="http://www.w3.org/1999/xlink" x="0px" y="0px"
	 width="48px" height="48px" viewBox="0 0 48 48" enable-background="new 0 0 48 48" xml:space="preserve">
<path fill="#FFFFFF" d="M26,14h-4v8h-8v4h8v8h4v-8h8v-4h-8V14z M24,4C12.95,4,4,12.95,4,24s8.95,20,20,20s20-8.95,20-20
	S35.05,4,24,4z M24,40c-8.82,0-16-7.18-16-16c0-8.82,7.18-16,16-16c8.82,0,16,7.18,16,16C40,32.82,32.82,40,24,40z"/>
</svg>
