<?xml version="1.0" encoding="utf-8"?>
<!-- Generator: Adobe Illustrator 16.0.0, SVG Export Plug-In . SVG Version: 6.00 Build 0)  -->
<!DOCTYPE svg PUBLIC "-//W3C//DTD SVG 1.1//EN" "http://www.w3.org/Graphics/SVG/1.1/DTD/svg11.dtd">
<svg version="1.1" id="Layer_1" xmlns="http://www.w3.org/2000/svg" xmlns:xlink="http://www.w3.org/1999/xlink" x="0px" y="0px"
	 width="128.16px" height="128.16px" viewBox="0 0 128.16 128.16" enable-background="new 0 0 128.16 128.16" xml:space="preserve">
<path fill="#FFFFFF" d="M64.08,0C28.689,0,0,28.689,0,64.08s28.689,64.08,64.08,64.08s64.08-28.689,64.08-64.08S99.471,0,64.08,0z
	 M64.08,114.08c-27.614,0-50-22.387-50-50c0-27.614,22.386-50,50-50c27.613,0,50,22.386,50,50
	C114.08,91.693,91.693,114.08,64.08,114.08z"/>
<circle fill="#FFFFFF" cx="62.969" cy="88.594" r="7.281"/>
<path fill="#FFFFFF" d="M70.25,65.055c0,4.021-3.261,7.281-7.281,7.281c-4.021,0-7.281-3.261-7.281-7.281
	c0-0.071,0.001-23.665,0.003-23.736c0.113-3.922,3.328-7.069,7.278-7.069c3.96,0,7.183,3.164,7.279,7.101
	C70.249,41.411,70.25,64.994,70.25,65.055z"/>
</svg>
